<?xml version="1.0" encoding="UTF-8" standalone="no"?>
<!-- Created with Inkscape (http://www.inkscape.org/) -->

<svg
   width="400.00003"
   height="38.528904"
   viewBox="0 0 400.00003 38.528902"
   version="1.1"
   id="svg5"
   xml:space="preserve"
   xmlns:xlink="http://www.w3.org/1999/xlink"
   xmlns="http://www.w3.org/2000/svg"
   xmlns:svg="http://www.w3.org/2000/svg"><defs
     id="defs2"><linearGradient
       id="linearGradient3"><stop
         style="stop-color:#a95ff4;stop-opacity:1;"
         offset="0"
         id="stop3" /><stop
         style="stop-color:#ac5ff4;stop-opacity:1;"
         offset="0.3214677"
         id="stop5" /><stop
         style="stop-color:#be5ff4;stop-opacity:1;"
         offset="0.72836798"
         id="stop6" /><stop
         style="stop-color:#ec5ff4;stop-opacity:1;"
         offset="1"
         id="stop4" /></linearGradient><linearGradient
       xlink:href="#linearGradient3"
       id="linearGradient13"
       x1="39.929451"
       y1="41.376793"
       x2="237.87634"
       y2="41.376793"
       gradientUnits="userSpaceOnUse" /><linearGradient
       xlink:href="#linearGradient3"
       id="linearGradient14"
       gradientUnits="userSpaceOnUse"
       x1="39.929451"
       y1="41.376793"
       x2="237.87634"
       y2="41.376793" /><linearGradient
       xlink:href="#linearGradient3"
       id="linearGradient15"
       gradientUnits="userSpaceOnUse"
       x1="39.929451"
       y1="41.376793"
       x2="237.87634"
       y2="41.376793" /><linearGradient
       xlink:href="#linearGradient3"
       id="linearGradient16"
       gradientUnits="userSpaceOnUse"
       x1="39.929451"
       y1="41.376793"
       x2="237.87634"
       y2="41.376793" /></defs><g
     id="layer1"
     transform="translate(-39.929455,-31.843448)"><g
       id="text1"
       style="font-size:26.6667px;line-height:1.4;font-family:'El Messiri';-inkscape-font-specification:'El Messiri, Normal';letter-spacing:0px;fill:url(#linearGradient13);stroke-width:0.6;stroke-linecap:round"
       aria-label="AmrBilMaruf.com"
       transform="matrix(2.0207441,0,0,2.0207441,-40.75775,-32.504009)"><path
         d="M 55.929473,49.84347 Q 55.342805,49.84347 54.489471,49.630136 53.636136,49.390136 52.809469,48.670135 51.982801,47.923467 51.396133,46.376799 L 50.729466,44.643463 H 43.26279 L 41.129454,49.710136 H 39.929452 L 47.396128,32.110114 H 48.196129 L 54.062803,46.376799 Q 54.702804,47.870134 55.289472,48.483468 55.876139,49.070136 56.996141,49.176802 V 49.710136 Q 56.782807,49.76347 56.489473,49.790137 56.222806,49.84347 55.929473,49.84347 Z M 43.66279,43.576795 H 50.196132 L 46.996128,35.843452 Z M 58.596149,49.710136 V 40.376791 Q 58.596149,39.17679 58.249482,38.456789 57.929481,37.710121 56.72948,37.710121 H 56.196146 V 37.176787 H 58.596149 Q 59.609483,37.176787 60.116151,37.470121 60.649485,37.736788 60.862818,38.243455 H 60.996152 Q 61.502819,37.736788 62.38282,37.336787 63.262821,36.91012 64.462823,36.91012 65.156157,36.91012 65.742825,37.07012 66.356159,37.230121 66.836159,37.630121 67.342827,38.030122 67.662827,38.776789 68.356161,37.870121 69.449496,37.390121 70.542831,36.91012 71.662832,36.91012 72.676167,36.91012 73.502834,37.310121 74.356169,37.710121 74.862836,38.750123 75.39617,39.763457 75.39617,41.710126 V 49.710136 H 72.996167 V 41.710126 Q 72.996167,39.710124 72.436166,38.910123 71.876166,38.110122 70.862831,38.110122 70.089497,38.110122 69.262829,38.670122 68.436161,39.230123 68.062827,39.843457 68.169494,40.136791 68.169494,40.723458 68.196161,41.310126 68.196161,41.710126 V 49.710136 H 65.796158 V 41.710126 Q 65.796158,39.710124 65.236157,38.910123 64.676157,38.110122 63.662822,38.110122 62.862821,38.110122 62.169487,38.536789 61.502819,38.963456 60.996152,39.523457 V 49.710136 Z M 79.342835,49.710136 V 40.376791 Q 79.342835,39.17679 78.996168,38.456789 78.676168,37.710121 77.476166,37.710121 H 77.209499 V 37.176787 H 79.342835 Q 80.35617,37.176787 80.862837,37.470121 81.396171,37.763455 81.609505,38.376789 82.062839,37.923455 82.916173,37.416788 83.796174,36.91012 84.942842,36.91012 85.342843,36.91012 85.796177,37.016787 86.249511,37.096787 86.542844,37.310121 86.836178,37.523454 87.049512,37.816788 87.262845,38.110122 87.476179,38.510122 L 86.409511,39.310123 Q 86.116177,38.910123 85.52951,38.723456 84.969509,38.510122 84.276175,38.510122 83.476174,38.510122 82.809506,38.883456 82.142839,39.230123 81.742838,39.843457 81.742838,39.976791 81.742838,40.243458 81.742838,40.483458 81.742838,40.643458 V 49.710136 Z"
         id="path10"
         style="fill:url(#linearGradient14)" /><path
         d="M 90.622836,49.710136 V 35.310118 Q 90.622836,34.110117 90.276169,33.390116 89.956168,32.643448 88.756167,32.643448 H 88.222833 V 32.110114 H 95.156175 Q 96.196176,32.110114 97.422844,32.270114 98.676179,32.430115 99.796181,32.910115 100.91618,33.363449 101.63618,34.296784 102.35618,35.230118 102.35618,36.776787 102.35618,37.976788 101.52952,39.01679 100.70285,40.030124 98.889513,40.643458 100.62285,40.910125 101.58285,41.523459 102.54285,42.110127 102.91618,42.963461 103.28952,43.816796 103.28952,44.91013 103.28952,46.403466 102.62285,47.363467 101.95618,48.296801 100.86285,48.803469 99.796181,49.310136 98.489512,49.52347 97.209511,49.710136 95.956176,49.710136 Z M 95.556175,48.776802 Q 97.982845,48.776802 99.289513,47.816801 100.62285,46.856799 100.62285,45.043464 100.62285,43.230128 99.342847,42.270127 98.062845,41.310126 95.556175,41.310126 H 93.022839 V 48.403468 Q 93.636173,48.590135 94.276174,48.696802 94.942841,48.776802 95.556175,48.776802 Z M 93.022839,40.243458 H 95.556175 Q 96.622843,40.243458 97.582844,39.843457 98.569512,39.443457 99.182847,38.643456 99.822847,37.843455 99.822847,36.643453 99.822847,35.363452 99.049513,34.563451 98.302845,33.76345 97.182844,33.416782 96.089509,33.043449 95.022841,33.043449 94.516174,33.043449 93.956173,33.123449 93.422839,33.203449 93.022839,33.310116 Z M 106.70285,49.710136 V 40.376791 Q 106.70285,39.17679 106.35618,38.456789 106.03618,37.710121 104.83618,37.710121 H 104.30285 V 37.176787 H 106.70285 Q 107.63618,37.176787 108.14285,37.416788 108.67619,37.656788 108.88952,38.350122 109.10285,39.043456 109.10285,40.376791 V 49.710136 Z M 107.71618,35.576785 Q 107.10285,35.576785 106.64952,35.070118 106.22285,34.563451 106.22285,33.870116 106.22285,33.310116 106.54285,32.990115 106.88952,32.670115 107.44952,32.670115 108.06285,32.670115 108.48952,33.176782 108.94285,33.683449 108.94285,34.376784 108.94285,34.936784 108.59619,35.256785 108.27619,35.576785 107.71618,35.576785 Z M 112.96953,49.710136 V 35.310118 Q 112.96953,34.110117 112.62286,33.390116 112.30286,32.643448 111.10286,32.643448 H 110.56953 V 32.110114 H 112.96953 Q 113.90286,32.110114 114.40953,32.350114 114.94286,32.590115 115.1562,33.283449 115.36953,33.976783 115.36953,35.310118 V 49.710136 Z"
         id="path11"
         style="fill:url(#linearGradient15)" /><path
         d="M 139.82292,50.910138 Q 137.90291,50.910138 136.80958,50.296804 135.74291,49.710136 135.31624,48.456801 134.88958,47.1768 134.88958,45.176797 V 34.910118 L 128.2229,49.710136 H 127.68957 L 120.75623,34.643451 V 49.710136 H 119.68956 V 32.110114 H 122.22289 L 128.6229,45.976798 134.88958,32.110114 H 137.28958 V 45.176797 Q 137.28958,47.603467 137.90291,48.990136 138.51625,50.376804 139.82292,50.376804 Z M 144.86288,49.976803 Q 144.30288,49.976803 143.63622,49.790137 142.99621,49.630136 142.38288,49.203469 141.76955,48.776802 141.36955,48.056801 140.99621,47.3368 140.99621,46.243465 140.99621,44.776797 141.92955,43.976796 142.88955,43.176795 144.43622,42.856794 146.00955,42.510127 147.79622,42.510127 H 148.59622 Q 148.59622,40.643458 148.22289,39.683457 147.84955,38.696789 147.20955,38.350122 146.59622,37.976788 145.79622,37.976788 144.67622,37.976788 143.90288,38.456789 143.15622,38.936789 142.86288,40.243458 H 141.66288 Q 141.66288,39.550124 141.74288,38.963456 141.82288,38.350122 142.32955,37.843455 142.83621,37.336787 143.98288,37.123454 145.12955,36.91012 146.32955,36.91012 147.23622,36.91012 148.06289,37.123454 148.91622,37.336787 149.55622,37.923455 150.22289,38.483456 150.59622,39.603457 150.99623,40.696792 150.99623,42.510127 V 49.710136 H 149.66289 L 148.72956,48.510135 H 148.59622 Q 148.19622,49.016802 147.28955,49.496803 146.38289,49.976803 144.86288,49.976803 Z M 146.06289,48.776802 Q 147.04955,48.776802 147.60955,48.296801 148.19622,47.790134 148.59622,47.1768 V 43.576795 H 147.79622 Q 145.79622,43.576795 144.64955,44.323463 143.52955,45.043464 143.52955,46.243465 143.52955,47.550134 144.30288,48.163468 145.07622,48.776802 146.06289,48.776802 Z M 154.91626,49.710136 V 40.376791 Q 154.91626,39.17679 154.56959,38.456789 154.24959,37.710121 153.04959,37.710121 H 152.78292 V 37.176787 H 154.91626 Q 155.9296,37.176787 156.43626,37.470121 156.9696,37.763455 157.18293,38.376789 157.63626,37.923455 158.4896,37.416788 159.3696,36.91012 160.51627,36.91012 160.91627,36.91012 161.3696,37.016787 161.82294,37.096787 162.11627,37.310121 162.4096,37.523454 162.62294,37.816788 162.83627,38.110122 163.0496,38.510122 L 161.98294,39.310123 Q 161.6896,38.910123 161.10294,38.723456 160.54293,38.510122 159.8496,38.510122 159.0496,38.510122 158.38293,38.883456 157.71626,39.230123 157.31626,39.843457 157.31626,39.976791 157.31626,40.243458 157.31626,40.483458 157.31626,40.643458 V 49.710136 Z M 169.8496,49.976803 Q 168.72959,49.976803 167.68959,49.576803 166.64959,49.176802 165.98292,48.136801 165.31626,47.0968 165.31626,45.176797 V 40.376791 Q 165.31626,39.17679 164.96959,38.456789 164.64959,37.710121 163.44959,37.710121 H 163.18292 V 37.176787 H 165.31626 Q 166.24959,37.176787 166.75626,37.416788 167.28959,37.656788 167.50293,38.350122 167.71626,39.043456 167.71626,40.376791 V 45.176797 Q 167.71626,46.510132 168.14293,47.310133 168.56959,48.083468 169.23626,48.430135 169.9296,48.776802 170.6496,48.776802 171.18293,48.776802 171.66293,48.590135 172.14293,48.376801 172.5696,48.056801 172.99627,47.736801 173.31627,47.363467 V 37.176787 H 175.71627 V 49.710136 H 174.38293 L 173.4496,48.643468 H 173.31627 Q 172.8096,49.150136 171.9296,49.576803 171.0496,49.976803 169.8496,49.976803 Z M 180.06294,49.710136 V 38.243455 H 178.19627 V 37.176787 H 180.06294 V 36.376786 Q 180.06294,34.510117 180.75628,33.550116 181.44961,32.563448 182.51628,32.216781 183.60961,31.843447 184.72961,31.843447 185.55628,31.843447 186.11628,31.950114 186.70295,32.030114 186.99628,32.243448 187.28962,32.456781 187.50295,32.750115 187.71629,33.043449 187.92962,33.443449 L 187.12962,34.110117 Q 186.72962,33.496783 186.08962,33.203449 185.44962,32.910115 184.59628,32.910115 183.68961,32.910115 183.07628,33.656783 182.46295,34.40345 182.46295,36.376786 V 37.176787 H 186.19628 V 38.243455 H 182.46295 V 49.710136 Z M 188.80961,50.08347 Q 188.22295,50.08347 187.79628,49.656803 187.36961,49.230136 187.36961,48.616802 187.36961,48.030134 187.79628,47.603467 188.22295,47.1768 188.80961,47.1768 189.42295,47.1768 189.82295,47.603467 190.24962,48.030134 190.24962,48.616802 190.24962,49.230136 189.82295,49.656803 189.39628,50.08347 188.80961,50.08347 Z M 198.80961,49.976803 Q 196.83627,49.976803 195.5296,49.096802 194.22293,48.216801 193.58293,46.723466 192.94293,45.230131 192.94293,43.443462 192.94293,41.630126 193.58293,40.163458 194.22293,38.670122 195.5296,37.790121 196.83627,36.91012 198.80961,36.91012 200.22294,36.91012 201.18294,37.123454 202.16961,37.336787 202.67628,37.843455 203.18295,38.350122 203.26295,39.09679 203.34295,39.816791 203.34295,41.310126 H 202.80961 Q 202.70295,39.603457 201.71628,38.803456 200.75628,37.976788 199.34294,37.976788 198.00961,37.976788 197.15627,38.723456 196.30294,39.443457 195.87627,40.670125 195.47627,41.896793 195.47627,43.443462 195.47627,44.963464 195.87627,46.216799 196.30294,47.443467 197.15627,48.190134 198.00961,48.910135 199.34294,48.910135 200.75628,48.910135 201.63628,48.350135 202.51628,47.790134 203.20961,46.776799 L 203.74295,47.1768 Q 203.15628,48.190134 202.40961,48.803469 201.66294,49.416803 200.75628,49.710136 199.87627,49.976803 198.80961,49.976803 Z M 211.68961,49.976803 Q 209.82294,49.976803 208.51627,49.096802 207.20961,48.216801 206.51627,46.723466 205.82294,45.230131 205.82294,43.443462 205.82294,41.630126 206.51627,40.163458 207.20961,38.670122 208.51627,37.790121 209.82294,36.91012 211.68961,36.91012 213.55628,36.91012 214.86295,37.790121 216.16962,38.670122 216.86295,40.163458 217.55629,41.630126 217.55629,43.443462 217.55629,45.230131 216.86295,46.723466 216.16962,48.216801 214.86295,49.096802 213.55628,49.976803 211.68961,49.976803 Z M 211.68961,48.910135 Q 212.70295,48.910135 213.44961,48.190134 214.19628,47.443467 214.59628,46.216799 215.02295,44.963464 215.02295,43.443462 215.02295,41.896793 214.59628,40.670125 214.19628,39.443457 213.44961,38.723456 212.70295,37.976788 211.68961,37.976788 210.70294,37.976788 209.92961,38.723456 209.18294,39.443457 208.75627,40.670125 208.35627,41.896793 208.35627,43.443462 208.35627,44.963464 208.75627,46.216799 209.18294,47.443467 209.92961,48.190134 210.70294,48.910135 211.68961,48.910135 Z M 221.07632,49.710136 V 40.376791 Q 221.07632,39.17679 220.72965,38.456789 220.40965,37.710121 219.20965,37.710121 H 218.67631 V 37.176787 H 221.07632 Q 222.08965,37.176787 222.59632,37.470121 223.12965,37.736788 223.34299,38.243455 H 223.47632 Q 223.98299,37.736788 224.86299,37.336787 225.74299,36.91012 226.94299,36.91012 227.63632,36.91012 228.22299,37.07012 228.83633,37.230121 229.31633,37.630121 229.82299,38.030122 230.14299,38.776789 230.83633,37.870121 231.92966,37.390121 233.023,36.91012 234.143,36.91012 235.15633,36.91012 235.983,37.310121 236.83634,37.710121 237.343,38.750123 237.87634,39.763457 237.87634,41.710126 V 49.710136 H 235.47633 V 41.710126 Q 235.47633,39.710124 234.91633,38.910123 234.35633,38.110122 233.343,38.110122 232.56966,38.110122 231.743,38.670122 230.91633,39.230123 230.54299,39.843457 230.64966,40.136791 230.64966,40.723458 230.67633,41.310126 230.67633,41.710126 V 49.710136 H 228.27633 V 41.710126 Q 228.27633,39.710124 227.71632,38.910123 227.15632,38.110122 226.14299,38.110122 225.34299,38.110122 224.64965,38.536789 223.98299,38.963456 223.47632,39.523457 V 49.710136 Z"
         id="path12"
         style="fill:url(#linearGradient16)" /></g></g></svg>
